<svg xmlns="http://www.w3.org/2000/svg" width="28.786" height="27.415"><path data-name="Icon simple-line" d="M23.227 11.142a.756.756 0 010 1.512h-2.1v1.349h2.1a.755.755 0 110 1.51h-2.862a.757.757 0 01-.752-.754V9.042a.758.758 0 01.756-.756h2.861a.756.756 0 010 1.511h-2.1v1.345h2.1zM18.6 14.761a.755.755 0 01-.518.715.775.775 0 01-.239.037.742.742 0 01-.612-.3L14.3 11.235v3.526a.754.754 0 11-1.508 0V9.042a.752.752 0 01.516-.714.7.7 0 01.233-.04.776.776 0 01.594.3l2.953 3.994v-3.54a.756.756 0 011.511 0zm-6.886 0a.754.754 0 11-1.509 0V9.042a.754.754 0 111.509 0zm-2.958.754H5.9a.76.76 0 01-.756-.754V9.042a.756.756 0 011.511 0v4.967h2.104a.755.755 0 010 1.51m20.027-3.831C28.786 5.242 22.327 0 14.393 0S0 5.242 0 11.685c0 5.77 5.122 10.605 12.036 11.524.469.1 1.107.309 1.269.708a2.93 2.93 0 01.046 1.3l-.2 1.223c-.054.361-.288 1.423 1.258.774s8.3-4.891 11.318-8.366a10.342 10.342 0 003.056-7.158" fill="#fff"/></svg>