<svg xmlns="http://www.w3.org/2000/svg" width="29" height="27"><path data-name="Icon simple-line" d="M23.4 10.975a.745.745 0 110 1.49h-2.121v1.329H23.4a.744.744 0 110 1.487h-2.884a.754.754 0 01-.758-.743V8.902a.755.755 0 01.761-.744H23.4a.744.744 0 110 1.488h-2.121v1.329H23.4zm-4.659 3.567a.745.745 0 01-.522.7.8.8 0 01-.24.037.753.753 0 01-.616-.3l-2.952-3.918v3.481a.76.76 0 01-1.519 0v-5.64a.742.742 0 01.52-.7.718.718 0 01.234-.039.787.787 0 01.6.3l2.975 3.934V8.902a.761.761 0 011.522 0zm-6.937 0a.76.76 0 01-1.52 0v-5.64a.76.76 0 011.52 0zm-2.98.743H5.941a.757.757 0 01-.761-.743v-5.64a.761.761 0 011.523 0v4.892h2.121a.744.744 0 110 1.487M29 11.508C29 5.163 22.493 0 14.5 0S0 5.163 0 11.508c0 5.683 5.16 10.445 12.126 11.35.472.1 1.115.3 1.278.7a2.823 2.823 0 01.046 1.276l-.2 1.2c-.054.356-.29 1.4 1.268.762s8.357-4.817 11.4-8.239A10.073 10.073 0 0029 11.508" fill="#04c755"/></svg>