<svg xmlns="http://www.w3.org/2000/svg" width="40" height="39.996"><path data-name="パス 8931" d="M18.197 39.995a18.076 18.076 0 01-9.4-2.452 16.937 16.937 0 01-6.466-6.948 22.614 22.614 0 01-2.33-10.544 22.739 22.739 0 012.33-10.6 17.123 17.123 0 016.463-6.975 17.922 17.922 0 019.4-2.479 17.633 17.633 0 019.348 2.479 17.439 17.439 0 016.441 6.977 22.517 22.517 0 012.358 10.6 25.148 25.148 0 01-.583 5.531 20.277 20.277 0 01-1.694 4.766L40 34.818l-4.105 5.123-5.712-4.36a16.566 16.566 0 01-5.354 3.269 18.588 18.588 0 01-6.632 1.145zm0-6.1a10.612 10.612 0 003.662-.627 10.387 10.387 0 003.051-1.719l-5.215-4.032 3.939-4.959 4.938 3.76a17.162 17.162 0 00.777-2.945 19.208 19.208 0 00.277-3.324 17.668 17.668 0 00-1.415-7.329 11.256 11.256 0 00-3.966-4.847 10.577 10.577 0 00-6.047-1.716 10.746 10.746 0 00-6.048 1.716 11.111 11.111 0 00-4.022 4.85 17.668 17.668 0 00-1.415 7.329 17.525 17.525 0 001.415 7.274 11.111 11.111 0 004.022 4.847 10.746 10.746 0 006.047 1.719z" fill="#3d044d"/></svg>