<svg xmlns="http://www.w3.org/2000/svg" width="538.501" height="65.134"><g data-name="グループ 1285"><g data-name="グループ 1284"><path data-name="合体 24" d="M30.001 1.5h483a25.5 25.5 0 010 51h-483a25.5 25.5 0 010-51z" fill="#3d004d"/></g><path data-name="パス 8988" d="M260.023 65.134l-2.073-2.168 15.648-14.962.591-.007 236.213-3a21 21 0 100-42H24a21 21 0 000 42h228.517v3H24a24.006 24.006 0 01-9.342-46.114A23.85 23.85 0 0124 0h486.4a24.006 24.006 0 019.343 46.113A23.851 23.851 0 01510.415 48l-235.6 2.989z" fill="#fcce53"/></g></svg>