<svg xmlns="http://www.w3.org/2000/svg" width="24" height="20"><g data-name="Icon feather-mail" fill="#9e9acb"><path data-name="パス 8775" d="M3.2 0h17.6A3.229 3.229 0 0124 3.25v13.5A3.229 3.229 0 0120.8 20H3.2A3.229 3.229 0 010 16.75V3.25A3.229 3.229 0 013.2 0zm17.6 18a1.227 1.227 0 001.2-1.25V3.25A1.227 1.227 0 0020.8 2H3.2A1.227 1.227 0 002 3.25v13.5A1.227 1.227 0 003.2 18z"/><path data-name="パス 8776" d="M12 11.9a1 1 0 01-.573-.181l-11-7.7a1 1 0 011.146-1.638L12 9.679l10.427-7.3a1 1 0 011.147 1.638l-11 7.7A1 1 0 0112 11.9z"/></g></svg>