<svg xmlns="http://www.w3.org/2000/svg" width="42" height="42"><g data-name="グループ 499" transform="translate(-8219.599 -12663.598)"><circle data-name="楕円形 13" cx="21" cy="21" r="21" transform="translate(8219.599 12663.598)" fill="#9e9acb"/><path data-name="Icon awesome-instagram" d="M8240.6 12679.219a5.379 5.379 0 105.379 5.379 5.371 5.371 0 00-5.379-5.379zm0 8.877a3.5 3.5 0 113.5-3.5 3.5 3.5 0 01-3.5 3.5zm6.854-9.1a1.255 1.255 0 11-1.255-1.255 1.252 1.252 0 011.255 1.258zm3.563 1.274a6.209 6.209 0 00-1.695-4.4 6.25 6.25 0 00-4.4-1.695c-1.732-.1-6.924-.1-8.657 0a6.241 6.241 0 00-4.392 1.695 6.23 6.23 0 00-1.695 4.4c-.1 1.732-.1 6.924 0 8.657a6.209 6.209 0 001.695 4.4 6.258 6.258 0 004.4 1.695c1.732.1 6.924.1 8.657 0a6.209 6.209 0 004.4-1.695 6.25 6.25 0 001.695-4.4c.1-1.732.1-6.92 0-8.652zm-2.238 10.513a3.541 3.541 0 01-1.994 1.994c-1.381.548-4.658.421-6.185.421s-4.808.122-6.185-.421a3.541 3.541 0 01-1.994-1.994c-.548-1.381-.421-4.658-.421-6.185s-.122-4.808.421-6.185a3.541 3.541 0 011.994-1.994c1.382-.549 4.659-.421 6.185-.421s4.808-.122 6.185.421a3.541 3.541 0 011.994 1.994c.548 1.381.421 4.658.421 6.185s.127 4.808-.421 6.185z" fill="#fff"/></g></svg>