<svg xmlns="http://www.w3.org/2000/svg" width="42" height="42"><g data-name="グループ 575" transform="translate(-804.84 -20918.84)"><circle data-name="楕円形 16" cx="21" cy="21" r="21" transform="translate(804.84 20918.84)" fill="#9e9acb"/><path data-name="Icon simple-tiktok" d="M826.311 20929.094c1.175-.018 2.341-.009 3.509-.018a5.587 5.587 0 001.57 3.74 6.326 6.326 0 003.8 1.606v3.615a9.6 9.6 0 01-3.767-.87 11.082 11.082 0 01-1.453-.834c-.009 2.619.009 5.238-.018 7.848a6.851 6.851 0 01-1.211 3.534 6.683 6.683 0 01-5.3 2.879 6.54 6.54 0 01-3.66-.924 6.764 6.764 0 01-3.274-5.122c-.018-.448-.027-.9-.009-1.336a6.753 6.753 0 017.83-5.992c.018 1.328-.036 2.655-.036 3.983a3.078 3.078 0 00-3.929 1.9 3.558 3.558 0 00-.126 1.444 3.053 3.053 0 003.139 2.574 3.013 3.013 0 002.487-1.445 2.07 2.07 0 00.368-.951c.09-1.606.054-3.2.063-4.808.009-3.615-.009-7.221.018-10.826z" fill="#fff"/></g></svg>