<svg xmlns="http://www.w3.org/2000/svg" width="64.089" height="62.086" viewBox="0 0 64.089 62.086">
  <path id="Icon_simple-line" data-name="Icon simple-line" d="M51.712,26.1a1.713,1.713,0,0,1,0,3.425H47.025v3.056h4.687a1.71,1.71,0,0,1,0,3.42H45.34a1.7,1.7,0,0,1-1.674-1.709V21.328a1.7,1.7,0,0,1,1.682-1.711H51.72a1.712,1.712,0,0,1-.008,3.423H47.025V26.1ZM41.418,34.288a1.679,1.679,0,0,1-1.685,1.7,1.642,1.642,0,0,1-1.362-.679L31.847,26.3v7.986a1.679,1.679,0,1,1-3.357,0V21.328a1.7,1.7,0,0,1,1.148-1.616,1.53,1.53,0,0,1,.518-.09,1.718,1.718,0,0,1,1.322.69l6.574,9.045v-8.03a1.683,1.683,0,1,1,3.365,0Zm-15.331,0a1.68,1.68,0,1,1-3.359,0V21.328a1.68,1.68,0,1,1,3.359,0ZM19.5,36H13.13a1.707,1.707,0,0,1-1.682-1.709V21.328a1.683,1.683,0,1,1,3.365,0V32.577H19.5a1.71,1.71,0,0,1,0,3.42m44.587-8.676c0-14.59-14.38-26.463-32.045-26.463S0,12.731,0,27.321c0,13.068,11.4,24.018,26.8,26.1,1.044.223,2.465.7,2.825,1.6a6.746,6.746,0,0,1,.1,2.934l-.438,2.771c-.12.818-.641,3.222,2.8,1.752S50.556,51.4,57.285,43.532c4.6-5.131,6.8-10.387,6.8-16.211" transform="translate(0 -0.858)" fill="#fff"/>
</svg>
