<svg xmlns="http://www.w3.org/2000/svg" width="194" height="194"><g data-name="グループ 1485" transform="translate(8232 -9730)"><circle data-name="楕円形 78" cx="97" cy="97" r="97" transform="translate(-8232 9730)" fill="#3d044d"/><g data-name="インスタグラムのシンプルなロゴのアイコン 1" transform="translate(-8187.847 9779)" fill="#fff"><path data-name="パス 17287" d="M73.765 0H32.307A28.026 28.026 0 004.281 28.026v43.116a28.026 28.026 0 0028.026 28.026h41.458a28.025 28.025 0 0028.025-28.026V28.026A28.025 28.025 0 0073.765 0zM14.231 28.026A18.1 18.1 0 0132.307 9.95h41.458a18.1 18.1 0 0118.076 18.076v43.116a18.1 18.1 0 01-18.076 18.076H32.307a18.1 18.1 0 01-18.076-18.076z"/><path data-name="パス 17288" d="M53.036 75.122a25.538 25.538 0 10-25.538-25.538 25.567 25.567 0 0025.538 25.538zm0-43.117a17.579 17.579 0 11-17.578 17.579A17.6 17.6 0 0153.036 32z"/><ellipse data-name="楕円形 82" cx="5.721" cy="5.722" rx="5.721" ry="5.722" transform="translate(73.599 17.578)"/></g></g></svg>