<svg xmlns="http://www.w3.org/2000/svg" width="194" height="194"><g data-name="グループ 1486" transform="translate(8448 -10345)"><circle data-name="楕円形 78" cx="97" cy="97" r="97" transform="translate(-8448 10345)" fill="#3d044d"/><path data-name="パス 17279" d="M-8368.981 10412.807h28.382a7.884 7.884 0 007.875-7.875v-6.094a7.884 7.884 0 00-7.875-7.875h-6.218a8.312 8.312 0 00-15.947 0h-6.217a7.884 7.884 0 00-7.875 7.875v6.094a7.884 7.884 0 007.875 7.875zm14.193-22.459a3 3 0 11-3 3 3 3 0 013-3z" fill="#fff"/><path data-name="パス 17280" d="M-8370.139 10431.506l7.186-7.188-2.612-2.612-7.188 7.186-4.573-4.574-2.614 2.614 7.186 7.188z" fill="#fff"/><path data-name="パス 17281" d="M-8370.139 10450.29l7.186-7.188-2.612-2.612-7.188 7.186-4.573-4.574-2.614 2.614 7.186 7.188z" fill="#fff"/><path data-name="パス 17282" d="M-8362.952 10461.891l-2.612-2.612-7.188 7.186-4.573-4.574-2.614 2.614 7.186 7.188z" fill="#fff"/><path data-name="パス 17283" d="M-8296.413 10431.875l-3.434-3.43a5.33 5.33 0 00-7.542 0l-3.211 3.213 10.975 10.973 3.213-3.212a5.338 5.338 0 00-.001-7.544z" fill="#fff"/><path data-name="パス 17284" d="M-8340.693 10461.756v10.974h10.975l27.1-27.1-10.975-10.977z" fill="#fff"/><path data-name="パス 17285" d="M-8327.921 10408.722h6.881a.239.239 0 01.239.239v25.309l10.735-10.735v-14.154a11.945 11.945 0 00-11.932-11.932h-5.438a13.245 13.245 0 01.074 1.389v6.094a13.181 13.181 0 01-.559 3.79z" fill="#fff"/><path data-name="パス 17286" d="M-8320.797 10470.046v17.34a.239.239 0 01-.239.24h-67.514a.239.239 0 01-.239-.24v-78.423a.239.239 0 01.239-.239h6.881a13.182 13.182 0 01-.559-3.79v-6.095a13.319 13.319 0 01.074-1.389h-5.434a11.945 11.945 0 00-11.932 11.932v79.908a11.945 11.945 0 0011.932 11.932h65.595a11.945 11.945 0 0011.932-11.932v-28.625l-9.38 9.381h-1.355z" fill="#fff"/></g></svg>