<svg xmlns="http://www.w3.org/2000/svg" width="184" height="184"><defs><clipPath id="a"><path data-name="長方形 818" fill="none" d="M0 0h124.719v101.798H0z"/></clipPath></defs><g data-name="グループ 1320" transform="translate(-661 -17068)"><circle data-name="楕円形 83" cx="92" cy="92" r="92" transform="translate(661 17068)" fill="#3e044d"/><g data-name="グループ 1285"><g data-name="グループ 1284" clip-path="url(#a)" fill="#fff" transform="translate(690.019 17109.1)"><path data-name="パス 9104" d="M116.252 20.441h-11.411L102.22 8.595A10.9 10.9 0 0091.516 0H51.9a10.9 10.9 0 00-10.7 8.594l-2.625 11.847h-2.708v-5.055A5.172 5.172 0 0030.7 10.22H14a5.172 5.172 0 00-5.166 5.166v5.055h-.367A8.476 8.476 0 000 28.908v57.343a8.476 8.476 0 008.467 8.467h39.266a44.131 44.131 0 0047.95 0h20.569a8.476 8.476 0 008.467-8.467V28.908a8.476 8.476 0 00-8.467-8.467M45.953 9.647A6.055 6.055 0 0151.9 4.872h39.616a6.054 6.054 0 015.947 4.775l2.389 10.794h-4.169a44.131 44.131 0 00-47.95 0h-4.169zM13.7 15.386a.294.294 0 01.3-.294h16.7a.3.3 0 01.294.294v5.055H13.7zm5.859 74.459V63.387a2.436 2.436 0 10-4.872 0v26.459h-6.22a3.6 3.6 0 01-3.595-3.595V28.908a3.6 3.6 0 013.595-3.595h33.04a44.145 44.145 0 000 64.533zm74.637 0a39.31 39.31 0 1116.856-32.266A39.262 39.262 0 0194.2 89.846m25.649-3.6a3.6 3.6 0 01-3.595 3.595h-14.345a44.145 44.145 0 000-64.533h14.343a3.6 3.6 0 013.595 3.595z"/><path data-name="パス 9105" d="M71.708 25.598a31.981 31.981 0 107.6 63.053 2.436 2.436 0 00-1.154-4.733 27.113 27.113 0 1116.009-11.147 2.436 2.436 0 104.033 2.734 31.986 31.986 0 00-26.489-49.907"/><path data-name="パス 9106" d="M17.126 33.732a9.07 9.07 0 109.07 9.07 9.08 9.08 0 00-9.07-9.07m0 13.269a4.2 4.2 0 114.2-4.2 4.2 4.2 0 01-4.2 4.2"/><path data-name="パス 9107" d="M91.369 81.073a2.6 2.6 0 00-.139-.456 2.467 2.467 0 00-.224-.419 2.317 2.317 0 00-.3-.37 2.4 2.4 0 00-.792-.529 2.455 2.455 0 00-.455-.139 2.411 2.411 0 00-.952 0 2.448 2.448 0 00-.456.139 2.577 2.577 0 00-.421.224 2.761 2.761 0 00-.37.3 2.331 2.331 0 00-.3.37 2.467 2.467 0 00-.224.419 2.566 2.566 0 00-.139.456 2.441 2.441 0 00-.048.477 2.4 2.4 0 00.048.475 2.452 2.452 0 00.139.456 2.4 2.4 0 00.224.421 2.331 2.331 0 00.3.37 2.556 2.556 0 00.37.3 2.6 2.6 0 00.421.224 2.451 2.451 0 00.456.139 2.353 2.353 0 00.952 0 2.449 2.449 0 00.455-.139 2.571 2.571 0 00.421-.224 2.443 2.443 0 001.036-2.5"/></g></g></g></svg>