<svg xmlns="http://www.w3.org/2000/svg" width="405.195" height="141.635"><g data-name="多角形 14" fill="#3d044d" stroke-linecap="round" stroke-linejoin="round"><path d="M10.01 4h385.176a5.954 5.954 0 015.764 4.332 5.954 5.954 0 01-2.56 6.74L205.802 136.708a5.992 5.992 0 01-6.408 0L6.806 15.074a5.954 5.954 0 01-2.56-6.74A5.953 5.953 0 0110.01 4z"/><path d="M202.598 133.635c.37 0 .742-.103 1.068-.31L396.254 11.691c1.695-1.07.936-3.691-1.068-3.691H10.01c-2.004 0-2.763 2.62-1.068 3.691L201.53 133.325c.326.207.697.31 1.068.31m0 8a9.986 9.986 0 01-5.34-1.546L4.67 18.455C.87 16.055-.845 11.539.404 7.22 1.654 2.9 5.514 0 10.01 0h385.176c4.496 0 8.356 2.902 9.606 7.22 1.25 4.32-.465 8.834-4.266 11.235L207.938 140.089a9.985 9.985 0 01-5.34 1.546z" fill="#fff"/></g></svg>