<svg xmlns="http://www.w3.org/2000/svg" width="32" height="32"><g data-name="グループ 389" transform="translate(-.5 -.5)"><circle data-name="楕円形 8" cx="16" cy="16" r="16" transform="translate(.5 .5)" fill="#fff"/><path data-name="Icon awesome-phone-alt" d="M24.248 19.617l-3.829-1.641a.821.821 0 00-.957.236l-1.7 2.072a12.672 12.672 0 01-6.049-6.058l2.072-1.7a.818.818 0 00.236-.957L12.38 7.748a.826.826 0 00-.94-.475l-3.556.817a.821.821 0 00-.636.8 15.861 15.861 0 0015.863 15.858.821.821 0 00.8-.636l.821-3.556a.83.83 0 00-.484-.939z" fill="#e95377"/></g></svg>