<svg xmlns="http://www.w3.org/2000/svg" width="32" height="31"><path data-name="Icon simple-line" d="M25.82 12.601a.855.855 0 010 1.71h-2.34v1.531h2.34a.854.854 0 010 1.708h-3.181a.849.849 0 01-.836-.853v-6.476a.85.85 0 01.84-.854h3.181a.855.855 0 010 1.709H23.48v1.526h2.34zm-5.14 4.091a.838.838 0 01-.841.85.82.82 0 01-.68-.339l-3.257-4.5v3.989a.838.838 0 11-1.676 0v-6.471a.849.849 0 01.573-.807.764.764 0 01.259-.045.858.858 0 01.66.344L19 14.23v-4.009a.84.84 0 111.68 0zm-7.655 0a.839.839 0 11-1.677 0v-6.471a.839.839 0 111.677 0zm-3.288.85H6.556a.852.852 0 01-.84-.853v-6.468a.84.84 0 111.68 0v5.621h2.341a.854.854 0 010 1.708M32 13.213C32 5.928 24.82 0 16 0S0 5.928 0 13.213c0 6.529 5.693 11.992 13.38 13.029.521.111 1.231.35 1.411.8a3.368 3.368 0 01.051 1.465l-.219 1.383c-.06.408-.32 1.609 1.4.875s9.221-5.531 12.581-9.46A11.8 11.8 0 0032 13.213" fill="#fff"/></svg>