<svg data-name="グループ 389" xmlns="http://www.w3.org/2000/svg" width="48" height="48"><circle data-name="楕円形 8" cx="24" cy="24" r="24" fill="#fff"/><path data-name="Icon awesome-phone-alt" d="M36.817 29.618l-5.947-2.549a1.274 1.274 0 00-1.487.366l-2.634 3.218a19.68 19.68 0 01-9.408-9.408l3.219-2.637a1.271 1.271 0 00.366-1.487l-2.548-5.942a1.283 1.283 0 00-1.461-.739l-5.521 1.275a1.274 1.274 0 00-.988 1.242 24.633 24.633 0 0024.636 24.636 1.274 1.274 0 001.242-.988l1.274-5.522a1.29 1.29 0 00-.744-1.465z" fill="#3d004d"/></svg>