<svg xmlns="http://www.w3.org/2000/svg" width="61.78" height="61.78" viewBox="0 0 61.78 61.78">
  <g id="グループ_389" data-name="グループ 389" transform="translate(-1.47)">
    <circle id="楕円形_8" data-name="楕円形 8" cx="30.89" cy="30.89" r="30.89" transform="translate(1.47)" fill="#fff"/>
    <path id="Icon_awesome-phone-alt" data-name="Icon awesome-phone-alt" d="M34.057,24.773l-7.669-3.287a1.643,1.643,0,0,0-1.917.472l-3.4,4.149A25.38,25.38,0,0,1,8.942,13.976l4.149-3.4a1.639,1.639,0,0,0,.472-1.917L10.278.994A1.654,1.654,0,0,0,8.395.042L1.274,1.685A1.643,1.643,0,0,0,0,3.287,31.767,31.767,0,0,0,31.771,35.057a1.643,1.643,0,0,0,1.6-1.274l1.643-7.121a1.663,1.663,0,0,0-.959-1.89Z" transform="translate(14.517 12.062)" fill="#e95377"/>
  </g>
</svg>
