<svg xmlns="http://www.w3.org/2000/svg" width="86.827" height="84.363" viewBox="0 0 86.827 84.363">
  <g id="グループ_575" data-name="グループ 575" transform="translate(-1611.343)">
    <ellipse id="楕円形_16" data-name="楕円形 16" cx="43.413" cy="42.182" rx="43.413" ry="42.182" transform="translate(1611.343 0)" fill="#9e9acb"/>
    <path id="Icon_simple-tiktok" data-name="Icon simple-tiktok" d="M22.041.038C24.394,0,26.73.019,29.065,0a12,12,0,0,0,3.144,7.842,12.388,12.388,0,0,0,7.617,3.366v7.579a18.518,18.518,0,0,1-7.545-1.824,21.964,21.964,0,0,1-2.91-1.749c-.018,5.491.018,10.983-.036,16.455a14.81,14.81,0,0,1-2.425,7.409,13.24,13.24,0,0,1-10.617,6.037,12.643,12.643,0,0,1-7.329-1.937A14.253,14.253,0,0,1,2.406,32.44c-.036-.94-.054-1.881-.018-2.8A14.336,14.336,0,0,1,7.023,20.31a12.957,12.957,0,0,1,11.048-3.235c.036,2.783-.072,5.566-.072,8.35a6.047,6.047,0,0,0-5.425.7,6.5,6.5,0,0,0-2.443,3.291,7.8,7.8,0,0,0-.252,3.028c.431,3.084,3.269,5.679,6.287,5.4a5.991,5.991,0,0,0,4.976-3.028,4.461,4.461,0,0,0,.737-1.993c.18-3.366.108-6.714.126-10.08.018-7.579-.018-15.139.036-22.7Z" transform="translate(1632.885 19.84)" fill="#fff"/>
  </g>
</svg>
