<svg xmlns="http://www.w3.org/2000/svg" width="60" height="51"><g data-name="グループ 1276"><path data-name="多角形 38" d="M28.276 2.93a2 2 0 013.448 0l26.5 45.055a2 2 0 01-1.724 3.014h-53a2 2 0 01-1.724-3.014z" fill="#f7c60e"/><path data-name="パス 9100" d="M29.711 36.965a.653.653 0 01-.517-.29 1.314 1.314 0 01-.228-.828 53.2 53.2 0 00-.417-7.363q-.414-2.856-1.159-5.878-.29-1.2-.5-2.339a11.755 11.755 0 01-.207-2.09 3.992 3.992 0 01.792-2.593 2.71 2.71 0 012.235-.973 2.663 2.663 0 012.194.973 3.992 3.992 0 01.786 2.587 11.755 11.755 0 01-.207 2.09q-.207 1.138-.5 2.339-.7 2.9-1.118 5.816a54.613 54.613 0 00-.414 7.43 1.314 1.314 0 01-.228.828.653.653 0 01-.512.291zm0 9.437a2.826 2.826 0 01-2.07-.869 2.826 2.826 0 01-.869-2.07 2.693 2.693 0 01.869-2.028 2.9 2.9 0 012.07-.828 2.827 2.827 0 012.049.828 2.724 2.724 0 01.849 2.028 2.861 2.861 0 01-.849 2.07 2.759 2.759 0 01-2.049.87z"/></g></svg>